<svg xmlns="http://www.w3.org/2000/svg" width="211.559" height="42.409" viewBox="0 0 211.559 42.409">
  <path id="Trazado_1" data-name="Trazado 1" d="M864.078,193.1V181.636a1.456,1.456,0,0,0-.417-1.028s-12.891-13.186-14.638-14.956h0a3.656,3.656,0,0,1-1.1-2.561,3.26,3.26,0,0,1,.958-2.3,2.568,2.568,0,0,1,2.039-.749,3.423,3.423,0,0,1,2.47,1.337,1.46,1.46,0,0,0,2.328-.03,3.216,3.216,0,0,1,2.357-1.3,2.611,2.611,0,0,1,2.125.745,3.253,3.253,0,0,1,.962,2.3,3.639,3.639,0,0,1-1.107,2.558l-2.154,2.187a1.483,1.483,0,0,0,0,2.075,1.456,1.456,0,0,0,1.035.43h0a1.441,1.441,0,0,0,1.034-.434l2.154-2.183a6.58,6.58,0,0,0,1.954-4.64,6.175,6.175,0,0,0-1.816-4.376,5.553,5.553,0,0,0-4.413-1.6,6.152,6.152,0,0,0-3.329,1.291,6.29,6.29,0,0,0-3.431-1.3,5.532,5.532,0,0,0-4.282,1.609,6.188,6.188,0,0,0-1.816,4.376,6.6,6.6,0,0,0,1.957,4.64c1.625,1.645,12.648,12.917,14.208,14.509v9.388H847.917v-9.391l2.81-2.935a1.482,1.482,0,0,0-.019-2.075,1.356,1.356,0,0,0-1.044-.421,1.446,1.446,0,0,0-1.032.444l-3.224,3.362a1.462,1.462,0,0,0-.417,1.028V193.1a1.467,1.467,0,0,0,1.461,1.471h16.165a1.465,1.465,0,0,0,1.461-1.471m43.647-.555v-9c0-4.114-2.236-6.445-5.9-6.445a6.789,6.789,0,0,0-5.684,2.968,5.348,5.348,0,0,0-5.04-2.968,6.037,6.037,0,0,0-5.138,2.9v-.8a1.934,1.934,0,0,0-1.947-1.948A1.908,1.908,0,0,0,882.1,179.2V192.54a1.931,1.931,0,0,0,3.862,0v-7.752c0-2.588,1.467-4.183,3.605-4.183s3.415,1.467,3.415,4.084v7.851a1.931,1.931,0,0,0,3.861,0v-7.752c0-2.716,1.5-4.183,3.608-4.183,2.171,0,3.415,1.438,3.415,4.117v7.818a1.908,1.908,0,0,0,1.947,1.917,1.882,1.882,0,0,0,1.915-1.917m19.021,0V179.2a1.957,1.957,0,0,0-1.947-1.948,1.934,1.934,0,0,0-1.948,1.948v7.752c0,2.617-1.562,4.15-3.8,4.15-2.3,0-3.606-1.468-3.606-4.085V179.2a1.931,1.931,0,1,0-3.861,0v8.967c0,3.923,2.2,6.478,6,6.478a6.067,6.067,0,0,0,5.266-2.968v.86a1.948,1.948,0,0,0,3.895,0M945.829,180a3.559,3.559,0,0,0,.158-.925,1.824,1.824,0,0,0-1.849-1.82,1.98,1.98,0,0,0-1.852,1.468l-4.213,11.2-4.531-11.2a1.938,1.938,0,0,0-1.884-1.468,1.855,1.855,0,0,0-1.915,1.882,2.6,2.6,0,0,0,.224.926l6.255,13.977-.128.352c-.637,1.31-1.245,1.786-2.394,1.786a4.356,4.356,0,0,1-1.34-.223,1.98,1.98,0,0,0-.7-.125,1.553,1.553,0,0,0-1.563,1.6,1.645,1.645,0,0,0,1.211,1.592,6.775,6.775,0,0,0,2.683.48c2.712,0,4.245-1.278,5.68-4.722Zm33.744,12.569v-9c0-4.118-2.233-6.449-5.9-6.449a6.783,6.783,0,0,0-5.68,2.968,5.349,5.349,0,0,0-5.043-2.968,6.032,6.032,0,0,0-5.136,2.906v-.8a1.934,1.934,0,0,0-1.947-1.947,1.9,1.9,0,0,0-1.914,1.947v13.34a1.931,1.931,0,0,0,3.861,0v-7.755c0-2.587,1.468-4.18,3.6-4.18s3.415,1.468,3.415,4.085v7.85a1.931,1.931,0,0,0,3.862,0v-7.755c0-2.712,1.5-4.18,3.6-4.18,2.17,0,3.415,1.435,3.415,4.114v7.821a1.909,1.909,0,0,0,1.947,1.915,1.88,1.88,0,0,0,1.914-1.915m19.021,0v-13.34a1.947,1.947,0,1,0-3.894,0v7.755c0,2.617-1.563,4.147-3.8,4.147-2.3,0-3.6-1.467-3.6-4.084v-7.818a1.933,1.933,0,1,0-3.865,0V188.2c0,3.927,2.2,6.478,6,6.478a6.059,6.059,0,0,0,5.264-2.968v.863a1.947,1.947,0,0,0,3.894,0m7.118-6.639v-.062a5.079,5.079,0,0,1,4.883-5.362,5.336,5.336,0,0,1,3.605,1.435,1.981,1.981,0,0,0,1.149.384,1.758,1.758,0,0,0,1.786-1.757,1.837,1.837,0,0,0-.6-1.339,8.538,8.538,0,0,0-5.907-2.108,8.7,8.7,0,0,0-8.773,8.809v.063a8.6,8.6,0,0,0,8.711,8.714,8.255,8.255,0,0,0,6.127-2.394,1.506,1.506,0,0,0,.542-1.211,1.627,1.627,0,0,0-2.712-1.278,5.617,5.617,0,0,1-3.767,1.5,5.1,5.1,0,0,1-5.04-5.4m29.775,6.639v-9c0-3.9-2.2-6.449-6-6.449a6.108,6.108,0,0,0-5.267,2.939v-7.28a1.927,1.927,0,0,0-1.947-1.914,1.9,1.9,0,0,0-1.914,1.914v19.789a1.931,1.931,0,0,0,3.861,0v-7.755c0-2.617,1.563-4.18,3.8-4.18,2.3,0,3.6,1.5,3.6,4.114v7.821a1.908,1.908,0,0,0,1.947,1.915,1.882,1.882,0,0,0,1.915-1.915m17.2-6.576a5.057,5.057,0,0,1-5.106,5.332,5.2,5.2,0,0,1-5.139-5.4v-.062a5.057,5.057,0,0,1,5.073-5.362,5.207,5.207,0,0,1,5.172,5.424Zm3.861-.063v-.062a8.986,8.986,0,0,0-17.967.062v.063a8.715,8.715,0,0,0,8.934,8.714,8.81,8.81,0,0,0,9.033-8.777" transform="translate(-844.991 -157.089)" fill="#fff"/>
</svg>
